<svg width="13" height="12" viewBox="0 0 13 12" fill="none" xmlns="http://www.w3.org/2000/svg">
<path d="M11.4867 8.17301L9.79338 7.97968C9.38671 7.93301 8.98671 8.07301 8.70005 8.35968L7.47338 9.58635C5.58671 8.62635 4.04005 7.08635 3.08005 5.19301L4.31338 3.95968C4.60005 3.67301 4.74005 3.27301 4.69338 2.86635L4.50005 1.18635C4.42005 0.513014 3.85338 0.00634766 3.17338 0.00634766H2.02005C1.26671 0.00634766 0.640047 0.633014 0.686714 1.38635C1.04005 7.07968 5.59338 11.6263 11.28 11.9797C12.0334 12.0263 12.66 11.3997 12.66 10.6463V9.49301C12.6667 8.81968 12.16 8.25301 11.4867 8.17301Z" fill="white"/>
</svg>
